<svg xmlns="http://www.w3.org/2000/svg" aria-hidden="true" style="position:absolute;width:0;height:0;overflow:hidden">
  <defs>
    <symbol id="icon-close" viewBox="0 0 32 32">
      <path fill="none" stroke="#ae1332" stroke-linecap="round" stroke-linejoin="round" stroke-width="3.429" d="M24 8 8 24M8 8l16 16" style="stroke:var(--color1, #ae1332)"/>
    </symbol>
    <symbol id="icon-unclick" viewBox="0 0 32 32">
      <path fill="none" stroke="#fff" stroke-width="2.4" d="M6.4 1.2h19.2a5.2 5.2 0 0 1 5.2 5.2v19.2a5.2 5.2 0 0 1-5.2 5.2H6.4a5.2 5.2 0 0 1-5.2-5.2V6.4a5.2 5.2 0 0 1 5.2-5.2z" style="stroke:var(--color2, #fff)"/>
    </symbol>
    <symbol id="icon-click" viewBox="0 0 32 32">
      <path fill="#fff" d="M26.151 1.405a3.2 3.2 0 1 1 5.297 3.591L14.092 30.595c-1.269 1.872-4.028 1.872-5.297 0L.551 18.435a3.199 3.199 0 1 1 5.297-3.591l5.595 8.253L26.15 1.404z" style="fill:var(--color2, #fff)"/>
    </symbol>
  </defs>
</svg>
