<svg width="217" height="204" viewBox="0 0 217 204" fill="none" xmlns="http://www.w3.org/2000/svg">
<g filter="url(#filter0_d_107_121)">
<path d="M79.3123 101.017C77.9176 101.364 76.6341 101.425 75.4617 101.198C74.2892 100.97 73.2913 100.479 72.4678 99.722C71.6624 98.9609 71.0948 97.9577 70.7651 96.7125L73.808 95.9538C74.079 96.9636 74.6467 97.7359 75.5111 98.2706C76.3754 98.8054 77.4325 98.917 78.6822 98.6054C79.7871 98.3299 80.5819 97.8528 81.0668 97.174C81.5652 96.4726 81.7106 95.7053 81.5029 94.8721C81.3358 94.202 81.0464 93.697 80.6346 93.3572C80.2409 93.0129 79.7476 92.7703 79.1546 92.6296C78.5797 92.4844 77.9301 92.3866 77.2058 92.3364C76.4814 92.2861 75.7163 92.2268 74.9105 92.1583C73.3215 92.0351 72.0586 91.6766 71.1218 91.083C70.2032 90.4848 69.5858 89.5518 69.2697 88.2839C68.9851 87.2198 68.9971 86.2261 69.3055 85.3027C69.6321 84.3748 70.203 83.5783 71.0183 82.9133C71.8473 82.2257 72.8866 81.7261 74.1364 81.4145C75.368 81.1074 76.5021 81.0651 77.5387 81.2876C78.5935 81.5056 79.4851 81.9566 80.2135 82.6407C80.9375 83.3067 81.4417 84.1717 81.7263 85.2358L78.6834 85.9945C78.5615 85.5055 78.3196 85.0752 77.9576 84.7038C77.5911 84.3142 77.1273 84.0354 76.566 83.8676C76.0047 83.6997 75.3709 83.7038 74.6645 83.88C73.7544 84.0876 73.0592 84.5015 72.5789 85.1214C72.1167 85.7368 71.9895 86.4611 72.1972 87.2943C72.3824 88.0369 72.742 88.5532 73.276 88.8433C73.81 89.1334 74.4913 89.3194 75.3197 89.4015C76.1437 89.4654 77.0876 89.5475 78.1514 89.6477C79.17 89.7208 80.1048 89.8821 80.9558 90.1317C81.8068 90.3812 82.5377 90.805 83.1485 91.403C83.7774 91.9964 84.2273 92.8365 84.4983 93.9233C84.7376 94.8832 84.7167 95.8407 84.4354 96.7958C84.1496 97.7328 83.5831 98.5859 82.736 99.355C81.8844 100.106 80.7431 100.66 79.3123 101.017ZM87.8404 98.544L83.0987 79.5262L85.9785 78.8082L88.0107 86.9587L97.2207 84.6624L95.1886 76.5119L98.0684 75.7938L102.81 94.8116L99.9303 95.5297L97.8101 87.026L88.6 89.3223L90.7202 97.826L87.8404 98.544ZM114.448 92.2564C112.564 92.726 110.812 92.7204 109.191 92.2395C107.571 91.7585 106.179 90.8839 105.017 89.6155C103.849 88.329 103.024 86.7167 102.541 84.7787C102.058 82.8407 102.032 81.0388 102.463 79.373C102.89 77.6891 103.705 76.2545 104.91 75.0691C106.115 73.8837 107.66 73.0562 109.543 72.5865C111.427 72.1169 113.179 72.1225 114.8 72.6034C116.42 73.0844 117.805 73.9703 118.954 75.2613C120.117 76.5297 120.94 78.1329 121.423 80.0709C121.906 82.0089 121.934 83.8199 121.508 85.5038C121.095 87.1651 120.286 88.5884 119.081 89.7738C117.876 90.9592 116.331 91.7867 114.448 92.2564ZM113.804 89.6754C115.108 89.3502 116.168 88.7782 116.983 87.9593C117.817 87.1358 118.37 86.113 118.642 84.8908C118.915 83.6686 118.864 82.3058 118.489 80.8025C118.114 79.2992 117.519 78.0719 116.705 77.1206C115.891 76.1694 114.922 75.5259 113.8 75.1902C112.695 74.8499 111.491 74.8424 110.187 75.1675C108.883 75.4927 107.814 76.0669 106.98 76.8904C106.147 77.7138 105.594 78.7367 105.322 79.9589C105.067 81.1766 105.128 82.5371 105.502 84.0404C105.877 85.5437 106.463 86.7732 107.259 87.729C108.073 88.6803 109.042 89.3238 110.164 89.6595C111.287 89.9952 112.5 90.0005 113.804 89.6754ZM125.915 89.0509L121.174 70.0331L127.83 68.3735C129.315 68.0032 130.61 67.9497 131.714 68.213C132.814 68.4581 133.708 68.9567 134.396 69.7087C135.097 70.438 135.583 71.3461 135.854 72.4328C136.112 73.4652 136.113 74.4748 135.859 75.4616C135.619 76.4258 135.072 77.2834 134.221 78.0343C133.369 78.7853 132.183 79.3505 130.661 79.7298L126.885 80.6714L128.795 88.3329L125.915 89.0509ZM126.296 78.3078L129.936 77.4001C131.294 77.0614 132.191 76.53 132.626 75.8059C133.075 75.0592 133.173 74.1787 132.92 73.1644C132.658 72.1139 132.156 71.3733 131.414 70.9428C130.685 70.4896 129.642 70.4323 128.283 70.771L124.643 71.6787L126.296 78.3078ZM82.0112 128.855L77.2695 109.837L80.1493 109.119L93.2552 121.059L89.6854 106.741L92.5653 106.023L97.3069 125.041L94.4271 125.759L81.3212 113.819L84.891 128.137L82.0112 128.855ZM108.937 122.488C107.053 122.957 105.301 122.952 103.681 122.471C102.06 121.99 100.669 121.115 99.5058 119.847C98.3386 118.56 97.5134 116.948 97.0302 115.01C96.547 113.072 96.5209 111.27 96.9521 109.604C97.3787 107.92 98.1946 106.486 99.3996 105.3C100.605 104.115 102.149 103.287 104.033 102.818C105.916 102.348 107.668 102.354 109.289 102.835C110.909 103.316 112.294 104.202 113.443 105.493C114.606 106.761 115.429 108.364 115.912 110.302C116.395 112.24 116.424 114.051 115.997 115.735C115.584 117.396 114.775 118.82 113.57 120.005C112.365 121.19 110.821 122.018 108.937 122.488ZM108.293 119.907C109.597 119.581 110.657 119.009 111.473 118.19C112.306 117.367 112.859 116.344 113.132 115.122C113.404 113.9 113.353 112.537 112.978 111.034C112.603 109.53 112.009 108.303 111.194 107.352C110.38 106.401 109.411 105.757 108.289 105.421C107.184 105.081 105.98 105.074 104.676 105.399C103.372 105.724 102.303 106.298 101.47 107.122C100.636 107.945 100.083 108.968 99.8107 110.19C99.5564 111.408 99.6167 112.768 99.9915 114.272C100.366 115.775 100.952 117.004 101.748 117.96C102.562 118.911 103.531 119.555 104.653 119.891C105.776 120.226 106.989 120.232 108.293 119.907ZM123.527 118.532L113.644 100.768L116.741 99.9955L124.446 114.812L124.864 97.9701L128.043 97.1776L136.183 111.885L136.03 95.1861L139.127 94.4139L138.653 114.732L135.284 115.572L127.408 101.693L126.835 117.679L123.527 118.532Z" fill="#AE1332"/>
</g>
<defs>
<filter id="filter0_d_107_121" x="-2.62842" y="0.401367" width="218.657" height="203.538" filterUnits="userSpaceOnUse" color-interpolation-filters="sRGB">
<feFlood flood-opacity="0" result="BackgroundImageFix"/>
<feColorMatrix in="SourceAlpha" type="matrix" values="0 0 0 0 0 0 0 0 0 0 0 0 0 0 0 0 0 0 127 0" result="hardAlpha"/>
<feOffset dy="4"/>
<feGaussianBlur stdDeviation="35"/>
<feComposite in2="hardAlpha" operator="out"/>
<feColorMatrix type="matrix" values="0 0 0 0 0 0 0 0 0 0 0 0 0 0 0 0 0 0 0.1 0"/>
<feBlend mode="normal" in2="BackgroundImageFix" result="effect1_dropShadow_107_121"/>
<feBlend mode="normal" in="SourceGraphic" in2="effect1_dropShadow_107_121" result="shape"/>
</filter>
</defs>
</svg>
