<!-- SOCIAL-MEDIA -->
<svg aria-hidden="true" style="position:absolute;width:0;height:0;overflow:hidden">
    <defs>
        <symbol id="icon-facebook" viewBox="0 0 32 32">
            <path fill="#ae1332"
                d="M19.52 4.64h.96v3.6h-1.2c-.48 0-.96 0-1.2.24s-.24.48-.24 1.04v1.28h2.64v3.04h-2.64v13.2h-4.08V13.76H11.6v-3.04h2.16V9.68c0-1.76.24-3.04.72-3.6.72-1.04 2.16-1.52 4.32-1.52.24.08.48.08.72.08z"
                opacity=".8" style="fill:var(--color1, #ae1332)" />
        </symbol>
        <symbol id="icon-instagram" viewBox="0 0 32 32">
            <path fill="#ae1332"
                d="M28.717 10.756a9.264 9.264 0 0 0-.596-3.145 6.547 6.547 0 0 0-3.743-3.737 9.42 9.42 0 0 0-3.108-.596c-1.368-.061-1.801-.078-5.273-.078s-3.917 0-5.274.078a9.418 9.418 0 0 0-3.106.596 6.541 6.541 0 0 0-3.743 3.737 9.288 9.288 0 0 0-.596 3.101c-.061 1.367-.08 1.8-.08 5.265s0 3.909.08 5.265a9.335 9.335 0 0 0 .596 3.104 6.548 6.548 0 0 0 3.744 3.735 9.37 9.37 0 0 0 3.106.639c1.369.061 1.803.08 5.274.08s3.916 0 5.274-.08a9.357 9.357 0 0 0 3.108-.595 6.555 6.555 0 0 0 3.743-3.737 9.35 9.35 0 0 0 .596-3.104c.061-1.365.08-1.798.08-5.265-.003-3.466-.003-3.906-.082-5.264zM15.99 22.531c-3.631 0-6.572-2.936-6.572-6.561s2.941-6.561 6.572-6.561c3.628 0 6.572 2.936 6.572 6.561s-2.944 6.561-6.572 6.561zm6.833-11.835a1.53 1.53 0 1 1 0-3.06 1.53 1.53 0 1 1 0 3.06z"
                opacity=".8" style="fill:var(--color1, #ae1332)" />
            <path fill="#ae1332" d="M15.992 19.976a4.004 4.004 0 1 0 0-8.009 4.004 4.004 0 0 0 0 8.009z" opacity=".8"
                style="fill:var(--color1, #ae1332)" />
        </symbol>
        <symbol id="icon-youtube" viewBox="0 0 32 32">
            <path fill="#ae1332"
                d="M24.24 6c-1.36-.08-4.16-.16-8.4-.16h-.56c-4.08 0-6.8.08-8.16.24-1.84.16-3.12.64-3.84 1.28-.64.56-1.12 1.6-1.28 2.96-.08.88-.16 2.72-.16 5.52v.4c0 2.64.08 4.48.24 5.36.24 1.28.64 2.24 1.44 2.8.8.64 2.16 1.04 4.08 1.2 1.36.08 4.16.16 8.4.16h.56c4.08 0 6.8-.08 8.16-.24 1.84-.16 3.12-.64 3.84-1.28.64-.56 1.12-1.6 1.28-2.96.08-.88.16-2.72.16-5.52v-.4c0-2.64-.08-4.48-.24-5.36-.24-1.28-.64-2.24-1.44-2.8-.8-.64-2.16-1.04-4.08-1.2zm-3.12 9.84-8.8 5.28V10.56l8.8 5.28z"
                opacity=".8" style="fill:var(--color1, #ae1332)" />
        </symbol>
        <!-- LOGO -->
        <symbol id="icon-logo" viewBox="0 0 32 32">
            <path fill="#ae1332"
                d="M29.082.314h-4.009c-1.237 0-2.24.983-2.24 2.195v3.929c0 1.212 1.003 2.195 2.24 2.195h4.009c1.237 0 2.24-.983 2.24-2.195V2.509c0-1.212-1.003-2.195-2.24-2.195zM6.73 23.04H2.412C1.08 23.04 0 24.023 0 25.235v3.929c0 1.213 1.08 2.195 2.412 2.195H6.73c1.332 0 2.412-.983 2.412-2.195v-3.929c0-1.212-1.08-2.195-2.412-2.195zM6.25 11.582H2.241c-1.237 0-2.24.983-2.24 2.195v3.929c0 1.212 1.003 2.195 2.24 2.195H6.25c1.237 0 2.24-.983 2.24-2.195v-3.929c0-1.212-1.003-2.195-2.24-2.195zM17.766 22.978h-4.009c-1.237 0-2.24.983-2.24 2.195v3.929c0 1.212 1.003 2.195 2.241 2.195h4.009c1.237 0 2.24-.983 2.24-2.195v-3.929c0-1.213-1.003-2.195-2.24-2.195zM6.25.086H2.241c-1.237 0-2.24.983-2.24 2.195V6.21c0 1.212 1.003 2.195 2.24 2.195H6.25c1.237 0 2.24-.983 2.24-2.195V2.281C8.49 1.069 7.487.086 6.25.086zM18.076 11.697h-4.009c-1.237 0-2.24.983-2.24 2.195v3.929c0 1.212 1.003 2.195 2.24 2.195h4.009c1.237 0 2.24-.983 2.24-2.195v-3.929c0-1.212-1.003-2.195-2.24-2.195zM29.333 22.978h-4.01c-1.237 0-2.24.983-2.24 2.195v3.929c0 1.212 1.003 2.195 2.24 2.195h4.009c1.237 0 2.24-.983 2.24-2.195v-3.929c0-1.213-1.003-2.195-2.24-2.195zM17.591.224h-4.009c-1.237 0-2.24.983-2.24 2.195v3.929c0 1.212 1.003 2.195 2.24 2.195h4.009c1.237 0 2.24-.984 2.24-2.196V2.418c0-1.212-1.003-2.195-2.24-2.195zM29.044 11.926h-4.01c-1.237 0-2.24.983-2.24 2.195v3.929c0 1.212 1.003 2.195 2.24 2.195h4.009c1.237 0 2.24-.983 2.24-2.195v-3.929c0-1.212-1.003-2.195-2.24-2.195z"
                style="fill:var(--color1, #ae1332)" />
        </symbol>
        <!-- MOBILE-MENU -->
        <symbol id="icon-burger-menu" viewBox="0 0 32 32">
            <path fill="#ae1332"
                d="M2.667 7.993c0-.733.595-1.327 1.327-1.327h10.68a1.326 1.326 0 0 1 0 2.654H3.994a1.326 1.326 0 0 1-1.327-1.327zm0 8.007c0-.733.595-1.327 1.327-1.327h24.013a1.326 1.326 0 0 1 0 2.654H3.994A1.326 1.326 0 0 1 2.667 16zm1.326 6.68a1.326 1.326 0 0 0 0 2.654h16.013a1.326 1.326 0 0 0 0-2.654H3.993z"
                style="fill:var(--color1, #ae1332)" />
        </symbol>
        <symbol id="icon-close" viewBox="0 0 32 32">
            <path fill="none" stroke="#ae1332" stroke-linecap="round" stroke-linejoin="round" stroke-width="2.667"
                d="M24 8 8 24M8 8l16 16" style="stroke:var(--color1, #ae1332)" />
        </symbol>
        <symbol id="icon-close-wihte" viewBox="0 0 32 32">
            <path fill="none" stroke="#fff" stroke-linecap="round" stroke-linejoin="round" stroke-width="2.286"
                d="M24 8 8 24M8 8l16 16" style="stroke:var(--color2, #fff)" />
        </symbol>
        <!-- BUTTON -->
        <symbol id="icon-order" viewBox="0 0 38 32">
            <path fill="#fff"
                d="m12.263 16.508-.397-.397v1.987l-1.987-1.987-.298.298 1.987 1.987H9.581l.397.397h2.285v-2.285zM15.272 17.369c-.232.058-.448.057-.647-.002s-.371-.167-.514-.323c-.144-.158-.245-.357-.305-.596s-.063-.461-.01-.666c.053-.207.153-.384.301-.53s.339-.248.571-.306c.232-.058.448-.057.647.002s.37.168.512.327c.143.156.245.354.304.592s.063.462.01.669c-.051.205-.151.38-.299.526s-.339.248-.571.306zm-.079-.318a.827.827 0 0 0 .392-.211c.103-.101.171-.227.204-.378s.027-.318-.019-.504c-.046-.185-.119-.336-.22-.454s-.22-.196-.358-.238c-.136-.042-.284-.043-.445-.003s-.292.111-.395.212a.736.736 0 0 0-.204.378c-.031.15-.024.318.022.503s.118.337.216.454c.1.117.22.196.358.238s.288.042.448.002zm1.492-.077-.584-2.343.807-.201c.185-.046.345-.053.479-.02a.632.632 0 0 1 .331.188c.084.09.142.2.175.33a.72.72 0 0 1-.019.424.65.65 0 0 1-.295.344l.746.87-.412.103-.69-.83-.418.104.235.944-.355.088zm.053-1.3.432-.108c.161-.04.268-.108.322-.205.056-.097.069-.208.038-.333s-.093-.215-.185-.27c-.093-.057-.221-.066-.386-.024l-.428.107.208.833zm1.849.826-.584-2.343.76-.189c.274-.068.512-.077.712-.025a.925.925 0 0 1 .497.31c.13.152.226.349.286.59.06.239.068.457.025.655a.92.92 0 0 1-.294.503c-.153.138-.367.241-.641.309l-.76.189zm.28-.39.392-.098c.212-.053.371-.129.476-.229a.604.604 0 0 0 .193-.365c.024-.143.013-.305-.032-.486s-.112-.33-.2-.448a.607.607 0 0 0-.343-.234c-.14-.041-.317-.035-.529.018l-.392.098.435 1.744zm1.939-.163-.584-2.343 1.489-.371.072.288-1.135.283.182.73 1.034-.258.07.281-1.034.258.189.756 1.134-.283.072.288-1.489.371zm1.778-.444L22 13.16l.806-.201c.185-.046.345-.053.478-.02a.632.632 0 0 1 .331.188c.084.09.142.2.175.33a.72.72 0 0 1-.019.424.647.647 0 0 1-.295.344l.747.87-.412.103-.691-.83-.418.104.235.944-.355.088zm.053-1.299.432-.108c.161-.04.268-.108.322-.205.057-.097.069-.208.038-.333s-.093-.215-.185-.27c-.093-.057-.221-.066-.387-.024l-.428.107.208.833z"
                style="fill:var(--color1, #fff)" />
        </symbol>
        <symbol id="icon-shopnow" viewBox="0 0 34 32">
            <path fill="#ae1332"
                d="M12.441 15.846c-.219.054-.42.064-.604.028s-.34-.113-.47-.232a.98.98 0 0 1-.267-.472l.477-.119c.043.158.132.28.267.363s.301.101.497.053c.173-.043.298-.118.374-.225a.42.42 0 0 0 .068-.361.439.439 0 0 0-.136-.238.533.533 0 0 0-.232-.114c-.09-.023-.192-.038-.306-.046s-.234-.017-.36-.028c-.249-.019-.447-.076-.594-.169a.702.702 0 0 1-.291-.439.791.791 0 0 1 .006-.468.832.832 0 0 1 .269-.375c.13-.108.293-.186.489-.235.193-.048.371-.055.534-.02a.857.857 0 0 1 .42.212c.114.104.193.24.237.407l-.477.119a.477.477 0 0 0-.332-.333.558.558 0 0 0-.298.002.554.554 0 0 0-.327.195.389.389 0 0 0-.06.341c.029.117.085.197.169.243s.191.075.321.088c.129.01.277.023.444.039.16.011.306.037.44.076s.248.106.344.199a.794.794 0 0 1 .212.395.843.843 0 0 1-.01.451.892.892 0 0 1-.267.401 1.262 1.262 0 0 1-.537.261zm1.338-.388-.744-2.983.452-.113.319 1.278 1.445-.36-.319-1.278.452-.113.744 2.983-.452.113-.333-1.334-1.445.36.333 1.334-.452.113zm4.174-.986c-.296.074-.57.073-.825-.003s-.472-.213-.655-.412c-.183-.202-.313-.455-.388-.759s-.08-.587-.012-.848c.067-.264.195-.489.384-.675s.431-.316.727-.389c.296-.074.57-.073.825.003s.471.214.652.417c.182.199.312.45.387.754s.08.588.013.852c-.065.261-.192.484-.381.67s-.431.316-.727.389zm-.101-.405c.205-.051.371-.141.499-.269.131-.129.218-.29.26-.481s.035-.405-.024-.641-.152-.428-.28-.578a.958.958 0 0 0-.456-.303c-.173-.053-.362-.055-.567-.004s-.372.141-.503.27a.952.952 0 0 0-.26.481c-.04.191-.03.404.028.64s.151.429.276.579c.128.149.28.25.456.303s.366.053.571.002zm1.899-.098-.744-2.983 1.044-.26c.233-.058.436-.066.609-.025a.782.782 0 0 1 .421.235.93.93 0 0 1 .229.427c.04.162.041.32.001.475-.038.151-.123.286-.257.404s-.32.206-.558.266l-.592.148.3 1.202-.452.113zm.06-1.685.571-.142c.213-.053.354-.136.422-.25a.528.528 0 0 0 .046-.414c-.041-.165-.12-.281-.236-.348-.114-.071-.278-.08-.491-.027l-.571.142.259 1.04zm-6.947 7.929-.744-2.983.452-.113 2.056 1.873-.56-2.246.452-.113.744 2.983-.452.113-2.056-1.873.56 2.246-.452.113zm4.224-.999c-.296.074-.57.073-.824-.003s-.472-.213-.655-.412c-.183-.202-.313-.455-.388-.759s-.08-.587-.012-.848c.067-.264.195-.489.384-.675s.431-.316.727-.389c.295-.074.57-.073.824.003s.471.214.652.417c.182.199.312.45.387.754s.08.588.013.852c-.065.261-.192.484-.381.67s-.431.316-.727.39zm-.101-.405c.205-.051.371-.141.499-.269.131-.129.217-.29.26-.481s.035-.405-.024-.641c-.059-.236-.152-.428-.28-.578s-.28-.25-.456-.303c-.173-.053-.362-.054-.567-.003s-.372.141-.503.27a.945.945 0 0 0-.26.481c-.04.191-.03.404.028.64s.151.429.276.579c.128.149.28.25.456.303s.366.053.571.003zm2.39-.216-1.55-2.787.486-.121 1.209 2.324.066-2.642.499-.124 1.277 2.307-.024-2.619.486-.121-.074 3.187-.528.132-1.235-2.177-.09 2.508-.519.134z"
                style="fill:var(--color2, #ae1332)" />
        </symbol>
        <!-- BASKET AND STRELKA -->
        <symbol id="icon-basket" viewBox="0 0 32 32">
            <path fill="none" stroke="#ae1332" stroke-width="2" d="M5.114 31 1.181 7.4H30.82L26.887 31H5.115z"
                style="stroke:var(--color1, #ae1332)" />
            <path fill="#ae1332"
                d="M6.533 7.467C6.533 2.239 10.771-2 16-2s9.467 4.238 9.467 9.467h-4a5.467 5.467 0 0 0-10.934 0h-4zM23.467 12.8zm-16.934 0V7.467A9.467 9.467 0 0 1 16-2v4a5.467 5.467 0 0 0-5.467 5.467V12.8h-4zM16-2a9.467 9.467 0 0 1 9.467 9.467V12.8h-4V7.467A5.467 5.467 0 0 0 16 2v-4z"
                style="fill:var(--color1, #ae1332)" />
        </symbol>
        <symbol id="icon-basket-wihte" viewBox="0 0 32 32">
            <path fill="#fff"
                d="M25.333 9.333h-4V8a5.332 5.332 0 1 0-10.666 0v1.333h-4a1.333 1.333 0 0 0-1.334 1.333v14.667a4.003 4.003 0 0 0 4 4h13.333a4 4 0 0 0 4-4V10.666a1.333 1.333 0 0 0-1.333-1.333zM13.333 8a2.668 2.668 0 0 1 5.334 0v1.333h-5.333V8zM24 25.333a1.333 1.333 0 0 1-1.333 1.334H9.334A1.334 1.334 0 0 1 8 25.333V12h2.667v1.333a1.335 1.335 0 0 0 2.277.943c.25-.25.39-.589.39-.943V12h5.333v1.333a1.333 1.333 0 1 0 2.666 0V12H24v13.333z"
                style="fill:var(--color2, #fff)" />
        </symbol>
        <symbol id="icon-strelka" viewBox="0 0 32 32">
            <path d="M32 4.741 27.259 0v23.704L3.555 0-.001 3.556 23.703 27.26H-.001l4.741 4.741h27.259V4.742z" />
        </symbol>
    </defs>
</svg>